<?xml version="1.0" encoding="iso-8859-1"?>
<!-- Generator: Adobe Illustrator 19.0.0, SVG Export Plug-In . SVG Version: 6.00 Build 0)  -->
<svg version="1.1" id="Capa_1" xmlns="http://www.w3.org/2000/svg" xmlns:xlink="http://www.w3.org/1999/xlink" x="0px" y="0px"
	 viewBox="0 0 512 512" style="enable-background:new 0 0 512 512;" xml:space="preserve">
<circle style="fill:#FFCD00;" cx="59.933" cy="207.324" r="49.572"/>
<path style="fill:#DDB200;" d="M59.936,157.745c-10.646,0-20.5,3.367-28.578,9.078c10.46,32.479,38.598,57.096,73.03,62.457
	c3.276-6.62,5.126-14.071,5.126-21.957C109.513,179.942,87.317,157.745,59.936,157.745z"/>
<circle style="fill:#FFDE55;" cx="118.53" cy="138.817" r="65.803"/>
<g>
	<path style="fill:#FFCD00;" d="M131.046,74.208c-2.032,9.044-3.111,18.443-3.111,28.092c0,33.231,12.725,63.543,33.554,86.326
		c13.981-12.067,22.841-29.903,22.841-49.82C184.33,106.747,161.398,80.056,131.046,74.208z"/>
	<circle style="fill:#FFCD00;" cx="452.504" cy="207.623" r="49.572"/>
</g>
<path style="fill:#DDB200;" d="M481.088,167.123c-8.079-5.711-17.932-9.078-28.578-9.078c-27.38,0-49.577,22.196-49.577,49.577
	c0,7.886,1.85,15.338,5.126,21.957C442.49,224.219,470.628,199.602,481.088,167.123z"/>
<circle style="fill:#FFDE55;" cx="393.918" cy="139.116" r="65.803"/>
<path style="fill:#FFCD00;" d="M381.4,74.579c2.031,9.044,3.111,18.443,3.111,28.092c0,33.231-12.725,63.543-33.554,86.326
	c-13.981-12.067-22.841-29.903-22.841-49.82C328.116,107.117,351.047,80.427,381.4,74.579z"/>
<circle style="fill:#FFEB99;" cx="255.997" cy="102.307" r="102.307"/>
<path style="fill:#FFDE55;" d="M206.242,102.309c0-47.419,32.262-87.297,76.033-98.896C273.889,1.19,265.083,0,255.997,0
	c-56.503,0-102.309,45.805-102.309,102.309s45.806,102.309,102.309,102.309c9.085,0,17.891-1.19,26.277-3.413
	C238.505,189.606,206.242,149.729,206.242,102.309z"/>
<path style="fill:#12B59E;" d="M43.128,213.079c-1.435-1.435-2.258-3.424-2.265-5.457c0-2.04,0.823-4.028,2.265-5.47
	c1.435-1.435,3.424-2.258,5.463-2.258c2.04,0,4.028,0.823,5.463,2.258c1.442,1.442,2.265,3.431,2.265,5.47
	c-0.007,2.033-0.83,4.022-2.265,5.457c-1.442,1.442-3.431,2.265-5.463,2.273C46.559,215.344,44.57,214.521,43.128,213.079z"/>
<circle style="fill:#57E5D0;" cx="255.997" cy="59.122" r="20.486"/>
<circle style="fill:#28C6AF;" cx="106.621" cy="128.144" r="14.423"/>
<path style="fill:#12B59E;" d="M468.867,213.079c1.435-1.435,2.258-3.424,2.265-5.457c0-2.04-0.823-4.028-2.265-5.47
	c-1.435-1.435-3.424-2.258-5.463-2.258c-2.04,0-4.028,0.823-5.463,2.258c-1.442,1.442-2.265,3.431-2.265,5.47
	c0.007,2.033,0.83,4.022,2.265,5.457c1.442,1.442,3.43,2.265,5.463,2.273C465.436,215.344,467.425,214.521,468.867,213.079z"/>
<circle style="fill:#28C6AF;" cx="405.374" cy="128.144" r="14.423"/>
<rect x="317.439" y="392.607" transform="matrix(-0.3887 -0.9214 0.9214 -0.3887 136.0973 890.9659)" style="fill:#FF3333;" width="92.359" height="15.453"/>
<circle style="fill:#3E3D42;" cx="383.688" cy="447.851" r="27.496"/>
<rect x="398.621" y="325.429" transform="matrix(-0.7346 -0.6785 0.6785 -0.7346 545.5022 879.6884)" style="fill:#FF3333;" width="92.356" height="15.453"/>
<circle style="fill:#3E3D42;" cx="482.678" cy="368.156" r="27.496"/>
<rect x="140.63" y="354.158" transform="matrix(-0.9214 -0.3887 0.3887 -0.9214 129.4426 826.8611)" style="fill:#FF3333;" width="15.453" height="92.359"/>
<circle style="fill:#3E3D42;" cx="128.306" cy="447.851" r="27.496"/>
<rect x="59.484" y="286.976" transform="matrix(-0.6785 -0.7346 0.7346 -0.6785 -131.9221 608.5726)" style="fill:#FF3333;" width="15.453" height="92.356"/>
<circle style="fill:#3E3D42;" cx="29.322" cy="368.156" r="27.496"/>
<rect x="248.271" y="386.74" style="fill:#FF3333;" width="15.453" height="92.356"/>
<circle style="fill:#3E3D42;" cx="255.997" cy="484.504" r="27.496"/>
<g>
	<path style="fill:#1D1D1F;" d="M248.988,484.504c0-11.564,7.142-21.454,17.252-25.517c-3.167-1.272-6.621-1.98-10.243-1.98
		c-15.186,0-27.496,12.311-27.496,27.496c0,15.185,12.31,27.497,27.496,27.497c3.622,0,7.076-0.708,10.243-1.98
		C256.13,505.958,248.988,496.068,248.988,484.504z"/>
	<path style="fill:#1D1D1F;" d="M121.294,447.839c0-11.564,7.142-21.454,17.252-25.517c-3.167-1.272-6.621-1.98-10.243-1.98
		c-15.186,0-27.496,12.311-27.496,27.496c0,15.185,12.31,27.496,27.496,27.496c3.622,0,7.076-0.708,10.243-1.98
		C128.436,469.292,121.294,459.403,121.294,447.839z"/>
	<path style="fill:#1D1D1F;" d="M22.312,368.16c0-11.564,7.142-21.454,17.252-25.517c-3.167-1.272-6.621-1.98-10.243-1.98
		c-15.186,0-27.496,12.311-27.496,27.496c0,15.185,12.31,27.496,27.496,27.496c3.622,0,7.076-0.708,10.243-1.98
		C29.454,389.613,22.312,379.724,22.312,368.16z"/>
	<path style="fill:#1D1D1F;" d="M376.668,447.839c0-11.564,7.142-21.454,17.252-25.517c-3.167-1.272-6.621-1.98-10.243-1.98
		c-15.186,0-27.496,12.311-27.496,27.496c0,15.185,12.31,27.496,27.496,27.496c3.622,0,7.076-0.708,10.243-1.98
		C383.81,469.292,376.668,459.403,376.668,447.839z"/>
	<path style="fill:#1D1D1F;" d="M475.664,368.16c0-11.564,7.142-21.454,17.252-25.517c-3.167-1.272-6.621-1.98-10.243-1.98
		c-15.186,0-27.496,12.311-27.496,27.496c0,15.185,12.31,27.496,27.496,27.496c3.622,0,7.076-0.708,10.243-1.98
		C482.805,389.613,475.664,379.724,475.664,368.16z"/>
</g>
<path style="fill:#D1E7F8;" d="M255.997,101.475c-92.705,0-171.803,58.219-202.752,140.085c-3.331,8.81-3.331,18.56,0,27.37
	c30.949,81.867,110.047,140.086,202.752,140.086s171.803-58.219,202.752-140.085c3.331-8.81,3.331-18.56,0-27.37
	C427.801,159.694,348.702,101.475,255.997,101.475z"/>
<g>
	<path style="fill:#B9D8F4;" d="M458.749,241.561c-30.949-81.867-110.047-140.086-202.752-140.086S84.194,159.692,53.245,241.56
		c-3.331,8.81-3.331,18.56,0,27.37c2.097,5.548,4.424,10.983,6.952,16.303l9.324-7.108c10.077-7.682,100.925-75.052,186.476-75.052
		c85.557,0,176.397,67.37,186.475,75.052l9.325,7.109c2.529-5.32,4.855-10.755,6.953-16.304
		C462.08,260.121,462.08,250.37,458.749,241.561z"/>
	<path style="fill:#B9D8F4;" d="M95.739,267.232c-3.331-8.81-3.331-18.56,0-27.37c27.553-72.884,93.27-127.024,172.775-138.028
		c-4.142-0.236-8.316-0.36-12.517-0.36c-92.705,0-171.803,58.219-202.752,140.085c-3.331,8.81-3.331,18.56,0,27.37
		c30.949,81.867,110.047,140.086,202.752,140.086c10.172,0,20.179-0.702,29.977-2.057
		C198.716,401.987,125.286,345.389,95.739,267.232z"/>
</g>
<path style="fill:#96C8EF;" d="M94,261.129c-1.411-7.071-0.838-14.45,1.74-21.267c27.553-72.884,93.27-127.024,172.775-138.028
	c-4.142-0.236-8.316-0.36-12.517-0.36c-92.705,0-171.803,58.219-202.752,140.085c-3.331,8.81-3.331,18.56,0,27.37
	c2.097,5.548,4.424,10.983,6.952,16.303l9.324-7.108C72.266,276.034,81.012,269.51,94,261.129z"/>
<circle style="fill:#57E5D0;" cx="255.997" cy="255.248" r="101.854"/>
<g>
	<path style="fill:#28C6AF;" d="M193.286,253.547c0-48.016,33.225-88.264,77.938-99.026c-4.968-0.745-10.051-1.133-15.226-1.133
		c-56.255,0-101.859,45.604-101.859,101.858c0,56.255,45.604,101.859,101.859,101.859c8.239,0,16.248-0.985,23.921-2.832
		C230.886,346.922,193.286,304.627,193.286,253.547z"/>
	<path style="fill:#28C6AF;" d="M255.997,203.073c33.481,0,67.769,10.317,97.712,23.337c-12.437-42.211-51.473-73.023-97.712-73.023
		c-46.24,0-85.275,30.814-97.712,73.024C188.229,213.391,222.519,203.073,255.997,203.073z"/>
</g>
<path style="fill:#12B59E;" d="M158.286,226.411c14.039-6.105,29.036-11.609,44.455-15.741
	c12.931-27.814,38.037-48.821,68.483-56.15c-4.968-0.745-10.051-1.134-15.226-1.134
	C209.759,153.387,170.722,184.201,158.286,226.411z"/>
<path style="fill:#3E3D42;" d="M255.997,289.498c-18.887,0-34.252-15.366-34.252-34.254s15.366-34.252,34.252-34.252
	c18.886,0,34.253,15.366,34.253,34.252S274.885,289.498,255.997,289.498z"/>
<path style="fill:#2D2D30;" d="M245.665,249.604c0-11.739,5.938-22.115,14.966-28.29c-1.516-0.206-3.062-0.322-4.634-0.322
	c-18.887,0-34.252,15.365-34.252,34.252s15.366,34.254,34.252,34.254c7.147,0,13.789-2.204,19.286-5.964
	C258.582,281.265,245.665,266.919,245.665,249.604z"/>
<path style="fill:#FF5C5C;" d="M255.997,172.168c94.466,0,189.75,69.592,205.212,81.379c-0.178-4.07-0.998-8.119-2.46-11.986
	c-30.949-81.867-110.047-140.086-202.752-140.086S84.194,159.694,53.245,241.56c-1.462,3.867-2.281,7.916-2.46,11.986
	C66.247,241.76,161.532,172.168,255.997,172.168z"/>
<path style="fill:#FF3333;" d="M268.514,101.834c-4.142-0.236-8.316-0.36-12.517-0.36c-92.705,0-171.803,58.219-202.752,140.085
	c-1.462,3.867-2.281,7.916-2.46,11.986c6.401-4.88,26.49-19.667,54.53-35.321C136.814,156.41,197.099,111.718,268.514,101.834z"/>
<g>
</g>
<g>
</g>
<g>
</g>
<g>
</g>
<g>
</g>
<g>
</g>
<g>
</g>
<g>
</g>
<g>
</g>
<g>
</g>
<g>
</g>
<g>
</g>
<g>
</g>
<g>
</g>
<g>
</g>
</svg>
