<?xml version="1.0" encoding="iso-8859-1"?>
<!-- Generator: Adobe Illustrator 19.0.0, SVG Export Plug-In . SVG Version: 6.00 Build 0)  -->
<svg version="1.1" id="Capa_1" xmlns="http://www.w3.org/2000/svg" xmlns:xlink="http://www.w3.org/1999/xlink" x="0px" y="0px"
	 viewBox="0 0 511.999 511.999" style="enable-background:new 0 0 511.999 511.999;" xml:space="preserve">
<path style="fill:#EC5569;" d="M474.902,78.949L474.902,78.949c-49.464-49.464-129.659-49.464-179.123,0l-27.94,27.94
	c-6.662,6.662-17.464,6.662-24.126,0l-27.494-27.493c-49.463-49.464-129.659-49.464-179.122,0l0,0
	c-49.463,49.463-49.463,129.659,0,179.123l206.632,206.633c6.662,6.662,17.464,6.662,24.126,0l207.046-207.08
	C524.365,208.608,524.365,128.412,474.902,78.949z"/>
<path style="fill:#E63950;" d="M68.023,258.519c-49.463-49.463-49.463-129.659,0-179.123l0,0
	c20.791-20.791,47.012-32.84,74.098-36.153c-37.354-4.568-76.352,7.48-105.024,36.153l0,0c-49.463,49.463-49.463,129.659,0,179.123
	l206.632,206.633c6.662,6.662,17.464,6.662,24.127,0l3.4-3.4L68.023,258.519z"/>
<path style="fill:#FFF5F5;" d="M370.881,213.24c-76.469-32.743-153.457-35.988-231.127-0.346c-4.482,3.86-8.959,7.938-13.43,12.264
	c5.405,4.417,10.811,8.562,16.218,12.439c77.289,29.823,152.991,29.08,227.222,0.052c5.225-3.804,10.446-7.864,15.659-12.188
	C380.558,221.153,375.712,217.089,370.881,213.24z"/>
<path style="opacity:0.1;fill:#000005;enable-background:new    ;" d="M161.667,228.706c-2.357-1.861-2.51-5.396-0.315-7.446
	c2.925-2.731,20.158-13.032,25.182-15.106c30.488-12.584,2.837-10.92-3.14-9.27c-14.304,3.948-28.629,9.163-42.978,15.708
	c-0.437,0.199-0.844,0.46-1.207,0.774c-2.93,2.535-5.857,5.164-8.782,7.894c-2.195,2.049-2.042,5.585,0.315,7.446
	c3.756,2.966,7.513,5.802,11.269,8.508c0.355,0.255,0.741,0.463,1.149,0.62c9.64,3.7,19.255,6.924,28.845,9.676
	c5.988,1.719,19.065,2.044,3.075-9.296C174.789,238.009,165.423,231.673,161.667,228.706z"/>
<path style="fill:#B5D3E3;" d="M247.236,187.458c5.117-0.109,10.232-0.065,15.344,0.128c46.51,1.758,46.132,71.178-0.403,72.06
	c-5.108,0.097-10.223,0.06-15.344-0.112C200.136,257.969,200.524,188.449,247.236,187.458z"/>
<path style="fill:#8ABBD5;" d="M268.721,188.251c-1.948-0.356-3.994-0.584-6.142-0.665c-5.112-0.193-10.226-0.237-15.344-0.129
	c-46.712,0.991-47.099,70.512-0.403,72.076c5.122,0.172,10.237,0.209,15.344,0.112c2.572-0.049,4.995-0.318,7.285-0.763
	C231.499,252.049,231.441,195.624,268.721,188.251z"/>
<g>
	<path style="fill:#2E3C43;" d="M192.766,335.908c-0.642,0-1.293-0.081-1.943-0.249c-4.134-1.07-6.617-5.288-5.547-9.422
		l12.729-49.168c1.07-4.134,5.288-6.618,9.422-5.547c4.134,1.07,6.617,5.288,5.547,9.422l-12.729,49.168
		C199.343,333.597,196.205,335.908,192.766,335.908z"/>
	<path style="fill:#2E3C43;" d="M319.232,335.908c-3.445,0-6.587-2.32-7.483-5.812l-12.615-49.168
		c-1.061-4.136,1.431-8.349,5.567-9.41c4.131-1.064,8.348,1.431,9.41,5.567l12.615,49.168c1.061,4.136-1.431,8.349-5.567,9.41
		C320.514,335.829,319.868,335.908,319.232,335.908z"/>
	<path style="fill:#2E3C43;" d="M255.999,362.637c-4.27,0-7.731-3.461-7.731-7.731v-68.217c0-4.27,3.461-7.731,7.731-7.731
		c4.27,0,7.731,3.461,7.731,7.731v68.217C263.73,359.176,260.268,362.637,255.999,362.637z"/>
	<path style="fill:#2E3C43;" d="M365.116,287.946c-2.452,0-4.862-1.163-6.363-3.331l-14.408-20.809
		c-2.431-3.511-1.555-8.327,1.955-10.757c3.51-2.432,8.327-1.555,10.757,1.955l14.408,20.809c2.431,3.511,1.555,8.327-1.955,10.757
		C368.167,287.5,366.633,287.946,365.116,287.946z"/>
	<path style="fill:#2E3C43;" d="M146.882,288.758c-1.518,0-3.051-0.446-4.394-1.376c-3.51-2.431-4.385-7.246-1.955-10.757
		l15.012-21.681c2.43-3.51,7.245-4.387,10.757-1.955c3.51,2.431,4.385,7.246,1.955,10.757l-15.012,21.681
		C151.744,287.595,149.333,288.758,146.882,288.758z"/>
</g>
<path style="fill:#B5D3E3;" d="M248.079,225.775c0.196,0.464,0.433,0.917,0.711,1.329c0.278,0.423,0.598,0.825,0.959,1.175
	c0.361,0.361,0.752,0.68,1.175,0.969c0.423,0.278,0.866,0.515,1.33,0.701c0.474,0.196,0.959,0.35,1.454,0.443
	c0.495,0.103,1,0.155,1.505,0.155s1.021-0.052,1.516-0.155c0.495-0.093,0.979-0.248,1.443-0.443c0.464-0.186,0.918-0.423,1.34-0.701
	c0.423-0.288,0.814-0.608,1.175-0.969c0.35-0.35,0.681-0.752,0.959-1.175c0.278-0.412,0.515-0.866,0.711-1.329
	c0.196-0.464,0.34-0.959,0.443-1.454c0.093-0.495,0.144-1,0.144-1.505s-0.051-1.01-0.144-1.516
	c-0.103-0.495-0.247-0.979-0.443-1.443s-0.433-0.918-0.711-1.33c-0.278-0.433-0.609-0.824-0.959-1.185
	c-0.361-0.35-0.752-0.67-1.175-0.959c-0.422-0.278-0.876-0.515-1.34-0.711c-0.464-0.186-0.948-0.34-1.443-0.433
	c-1-0.206-2.02-0.206-3.02,0c-0.495,0.093-0.979,0.247-1.454,0.433c-0.464,0.196-0.907,0.433-1.33,0.711
	c-0.422,0.289-0.814,0.609-1.175,0.959c-0.361,0.361-0.68,0.752-0.959,1.185c-0.278,0.412-0.515,0.866-0.711,1.33
	s-0.34,0.948-0.443,1.443c-0.103,0.505-0.155,1.01-0.155,1.516c0,0.505,0.052,1.01,0.155,1.505
	C247.739,224.816,247.883,225.311,248.079,225.775z"/>
<path style="fill:#CC2E43;" d="M402.389,219.963c-49.243-45.522-98.2-69.256-145.509-70.544
	c-50.262-1.35-99.891,22.451-147.53,70.794c-1.505,1.527-2.308,3.61-2.218,5.752s1.066,4.15,2.693,5.545
	c48.93,41.936,97.978,62.9,146.819,62.9c48.853,0,97.5-20.984,145.58-62.945c1.653-1.443,2.615-3.52,2.646-5.714
	C404.903,223.557,404.001,221.452,402.389,219.963z M142.542,237.597c-5.406-3.877-10.813-8.022-16.218-12.439
	c4.471-4.326,8.948-8.404,13.43-12.264c77.67-35.642,154.657-32.398,231.127,0.346c4.831,3.849,9.677,7.913,14.542,12.221
	c-5.213,4.324-10.434,8.384-15.659,12.188C295.533,266.677,219.832,267.42,142.542,237.597z"/>
<path style="fill:#962A3A;" d="M256.659,267.199c-47.958,0-96.746-11.703-145.038-34.792c-2.521-1.206-4.164-3.714-4.26-6.507
	s1.368-5.409,3.801-6.786c47.251-26.75,96.25-39.916,145.622-39.183c46.55,0.707,94.93,13.843,143.795,39.043
	c2.522,1.301,4.095,3.915,4.062,6.752s-1.665,5.415-4.216,6.657c-47.069,22.917-95.056,34.629-142.627,34.813
	C257.42,267.198,257.037,267.199,256.659,267.199z M131.744,225.078c83.027,35.773,166.305,35.885,247.972,0.338
	C292.844,184.655,211.453,184.543,131.744,225.078z"/>
<path style="fill:#3F7196;" d="M254.635,231.281c-0.505,0-1.01-0.052-1.505-0.155c-0.495-0.093-0.979-0.248-1.454-0.443
	c-0.464-0.186-0.907-0.423-1.33-0.701c-0.422-0.288-0.814-0.608-1.175-0.969c-0.361-0.35-0.68-0.752-0.959-1.175
	c-0.278-0.412-0.515-0.866-0.711-1.329c-0.196-0.464-0.34-0.959-0.443-1.454s-0.155-1-0.155-1.505s0.052-1.01,0.155-1.516
	c0.103-0.495,0.248-0.979,0.443-1.443c0.196-0.464,0.433-0.918,0.711-1.33c0.278-0.433,0.598-0.824,0.959-1.185
	c0.361-0.35,0.752-0.67,1.175-0.959c0.423-0.278,0.866-0.515,1.33-0.711c0.474-0.186,0.959-0.34,1.454-0.433
	c1-0.206,2.02-0.206,3.02,0c0.495,0.093,0.979,0.247,1.443,0.433c0.464,0.196,0.918,0.433,1.34,0.711
	c0.423,0.289,0.814,0.609,1.175,0.959c0.35,0.361,0.68,0.752,0.959,1.185c0.278,0.412,0.515,0.866,0.711,1.33
	c0.196,0.464,0.34,0.948,0.443,1.443c0.093,0.505,0.144,1.01,0.144,1.516c0,0.505-0.051,1.01-0.144,1.505
	c-0.103,0.495-0.247,0.99-0.443,1.454c-0.196,0.464-0.433,0.917-0.711,1.329c-0.278,0.423-0.609,0.825-0.959,1.175
	c-0.361,0.361-0.752,0.68-1.175,0.969c-0.422,0.278-0.876,0.515-1.34,0.701c-0.464,0.196-0.948,0.35-1.443,0.443
	C255.655,231.229,255.14,231.281,254.635,231.281z"/>
<g>
</g>
<g>
</g>
<g>
</g>
<g>
</g>
<g>
</g>
<g>
</g>
<g>
</g>
<g>
</g>
<g>
</g>
<g>
</g>
<g>
</g>
<g>
</g>
<g>
</g>
<g>
</g>
<g>
</g>
</svg>
