<?xml version="1.0" encoding="iso-8859-1"?>
<!-- Generator: Adobe Illustrator 19.0.0, SVG Export Plug-In . SVG Version: 6.00 Build 0)  -->
<svg version="1.1" id="Capa_1" xmlns="http://www.w3.org/2000/svg" xmlns:xlink="http://www.w3.org/1999/xlink" x="0px" y="0px"
	 viewBox="0 0 512 512" style="enable-background:new 0 0 512 512;" xml:space="preserve">
<path style="fill:#B9D8F4;" d="M286.011,504.5h-60.024c-46.751,0-85.001-38.251-85.001-85.001v-121.28
	c0-46.751,38.251-85.001,85.001-85.001h60.024c46.751,0,85.001,38.251,85.001,85.001V419.5
	C371.013,466.249,332.762,504.5,286.011,504.5z"/>
<path style="fill:#96C8EF;" d="M225.945,430.851V309.57c0-46.743,49.283-88.289,96.027-88.303
	c-10.938-5.151-23.124-8.049-35.96-8.049h-60.024c-46.751,0-85.001,38.251-85.001,85.001V419.5
	c0,46.751,38.251,85.001,85.001,85.001h42.702C243.205,489.78,225.945,462.242,225.945,430.851z"/>
<path style="fill:#00DDC2;" d="M225.989,504.5h60.024c1.223,0,2.437-0.041,3.648-0.093c-6.089-12.444-18.871-21.016-33.66-21.016
	c-14.788,0-27.57,8.572-33.66,21.016C223.551,504.459,224.765,504.5,225.989,504.5z"/>
<path style="fill:#00CCB3;" d="M245.49,484.891c-10.177,2.971-18.562,10.143-23.148,19.516c1.211,0.052,2.425,0.093,3.648,0.093
	h42.701l0,0C259.836,499.387,251.979,492.723,245.49,484.891z"/>
<circle style="fill:#FFEB99;" cx="255.994" cy="458.587" r="7.5"/>
<path style="fill:#FF3F62;" d="M209.753,455.124c5.232,4.441,16.59,21.38,12.149,26.612c-4.441,5.232-23-3.224-28.232-7.665
	c-5.232-4.441-5.873-12.283-1.432-17.515C196.679,451.324,204.521,450.683,209.753,455.124z"/>
<path style="fill:#FF728B;" d="M302.248,455.124c-5.232,4.441-16.59,21.38-12.149,26.612c4.441,5.232,23-3.224,28.232-7.665
	c5.232-4.441,5.873-12.283,1.432-17.515C315.321,451.324,307.48,450.683,302.248,455.124z"/>
<path style="fill:#D1E7F8;" d="M427.213,267.909c-3.523-7.026-3.841-15.209-1.294-22.645c6.281-18.333,9.681-38.003,9.651-58.472
	C435.428,88.597,355.085,7.5,256,7.5S76.573,88.597,76.43,186.792c-0.03,20.469,3.37,40.139,9.651,58.472
	c2.548,7.436,2.23,15.619-1.294,22.645c-5.343,10.656-8.357,22.679-8.357,35.413c0,68.91,56.183,78.024,79.902,78.704
	c6.329,0.182,11.886,4.265,14.035,10.221l2.442,6.772c2.97,8.236,10.786,13.726,19.541,13.726h127.3
	c8.755,0,16.571-5.49,19.541-13.726l2.442-6.772c2.148-5.956,7.705-10.039,14.035-10.221c23.719-0.68,79.902-9.795,79.902-78.704
	C435.571,290.589,432.557,278.565,427.213,267.909z"/>
<path style="fill:#B9D8F4;" d="M160.873,273.648c-75.2-168.41,13.346-246.336,13.353-246.342
	C116.338,57.148,76.53,117.556,76.43,186.793c-0.03,20.469,3.37,40.139,9.651,58.472c2.548,7.436,2.23,15.619-1.294,22.645
	c-5.343,10.656-8.357,22.679-8.357,35.413c0,68.91,56.183,78.024,79.902,78.704c6.329,0.182,11.886,4.264,14.034,10.22
	c0.785,2.176,1.623,4.501,2.443,6.774c2.97,8.236,10.785,13.724,19.541,13.724l33.237,0.135
	c-7.34-10.612-8.801-21.972-11.899-31.413c-4.385-13.365-12.092-25.321-22.207-35.096c-19.504-18.847-24.445-41.771-25.687-54.093
	C165.144,285.846,163.509,279.551,160.873,273.648z"/>
<path style="fill:#57565C;" d="M282.144,350.36c0,14.439-11.705,17.429-26.144,17.429c-14.439,0-26.144-2.99-26.144-17.429
	c0-14.439,11.705-48.802,26.144-48.802C270.439,301.559,282.144,335.922,282.144,350.36z"/>
<path style="fill:#3E3D42;" d="M250.964,352.18c0-10.99,6.785-33.511,16.392-43.647c-3.434-4.243-7.286-6.974-11.355-6.974
	c-14.439,0-26.144,34.364-26.144,48.802c0,14.438,11.705,17.429,26.144,17.429c1.925,0,3.8-0.055,5.607-0.182
	C255.153,365.354,250.964,360.815,250.964,352.18z"/>
<path style="fill:#FF728B;" d="M233.294,265.461c2.997-2.743,4.888-6.674,4.888-11.057c0-8.284-6.716-15-15-15
	c-2.002,0-3.909,0.4-5.656,1.112c0.168-0.898,0.266-1.822,0.266-2.769c0-8.284-6.716-15-15-15c-4.57,0-8.655,2.05-11.406,5.273
	c-2.248-5.448-7.607-9.284-13.866-9.284c-5.997,0-11.157,3.528-13.558,8.614c-2.736-3.654-7.087-6.116-12.002-6.03
	c-15.89,0.281-14.972,15.619-14.953,15.927c-1.608-0.589-3.337-0.927-5.15-0.927c-8.284,0-15,6.716-15,15
	c0,3.442,1.172,6.604,3.122,9.135c-6.853,1.385-12.014,7.439-12.014,14.701c0,6.09,3.635,11.32,8.848,13.67
	c-2.797,2.725-4.492,6.527-4.54,10.74c-0.184,15.916,16.657,14.967,16.657,15c0,8.284,6.716,15,15,15
	c3.031,0,5.847-0.906,8.206-2.452c2.637,4.302,7.368,7.182,12.784,7.182c6.823,0,12.572-4.56,14.391-10.795
	c2.645,2.337,6.118,4.01,9.917,3.766c16.211-1.038,14.979-15.367,14.972-15.551c1.27,0.349,2.601,0.551,3.982,0.551
	c8.284,0,15-6.716,15-15c0-2.061-0.417-4.023-1.169-5.811c0.387,0.03,15.658,0.029,16.169-14.941
	C238.331,272.137,236.291,268.204,233.294,265.461z"/>
<path style="fill:#FF3F62;" d="M177.14,327.972c-7.889-13.729-10.493-27.219-11.347-35.695c-0.649-6.431-2.284-12.727-4.919-18.629
	c-7.792-17.45-13.821-33.927-18.378-49.449c-5.992,4.528-5.503,12.822-5.49,13.047c-1.608-0.589-3.337-0.927-5.15-0.927
	c-8.284,0-15,6.716-15,15c0,3.442,1.172,6.604,3.122,9.135c-6.853,1.385-12.014,7.439-12.014,14.701c0,6.09,3.635,11.32,8.848,13.67
	c-2.797,2.725-4.492,6.527-4.54,10.74c-0.184,15.916,16.657,14.967,16.657,15c0,8.284,6.716,15,15,15
	c3.031,0,5.847-0.906,8.206-2.452c2.637,4.302,7.368,7.182,12.784,7.182C169.969,334.299,174.425,331.798,177.14,327.972z"/>
<path style="fill:#57565C;" d="M179.305,316.866c-21.987,7.785-46.123-3.727-53.908-25.714s3.727-46.123,25.714-53.908
	c21.987-7.785,65.36-3.084,73.145,18.902C232.042,278.133,201.291,309.081,179.305,316.866z"/>
<path style="fill:#3E3D42;" d="M149.781,293.118c-7.785-21.987,3.727-46.123,25.714-53.908c5.298-1.876,11.841-3.019,18.825-3.377
	c-14.888-3.272-31.883-2.586-43.21,1.424c-21.987,7.785-33.5,31.921-25.714,53.908c7.184,20.288,28.288,31.645,48.781,27.164
	C163.177,314.009,154.035,305.133,149.781,293.118z"/>
<path style="fill:#FF728B;" d="M273.822,276.518c0.51,14.97,15.782,14.971,16.169,14.941c-0.752,1.787-1.169,3.75-1.169,5.811
	c0,8.284,6.716,15,15,15c1.381,0,2.712-0.202,3.982-0.551c-0.007,0.184-1.239,14.513,14.972,15.551
	c3.799,0.243,7.272-1.43,9.917-3.766c1.819,6.236,7.568,10.795,14.391,10.795c5.416,0,10.147-2.88,12.784-7.182
	c2.359,1.546,5.175,2.452,8.206,2.452c8.284,0,15-6.716,15-15c0-0.033,16.841,0.916,16.657-15c-0.049-4.213-1.743-8.016-4.54-10.74
	c5.213-2.35,8.848-7.581,8.848-13.67c0-7.261-5.161-13.316-12.014-14.701c1.95-2.531,3.122-5.693,3.122-9.135
	c0-8.284-6.716-15-15-15c-1.812,0-3.541,0.338-5.15,0.927c0.019-0.308,0.937-15.646-14.953-15.927
	c-4.915-0.087-9.266,2.375-12.002,6.03c-2.4-5.086-7.56-8.614-13.558-8.614c-6.259,0-11.618,3.836-13.866,9.284
	c-2.751-3.223-6.836-5.273-11.406-5.273c-8.284,0-15,6.716-15,15c0,0.947,0.098,1.87,0.266,2.769
	c-1.746-0.712-3.654-1.112-5.656-1.112c-8.284,0-15,6.716-15,15c0,4.383,1.891,8.314,4.888,11.057
	C275.713,268.204,273.673,272.137,273.822,276.518z"/>
<path style="fill:#57565C;" d="M332.699,316.866c21.987,7.785,46.123-3.727,53.908-25.714s-3.727-46.123-25.714-53.908
	c-21.987-7.785-65.36-3.084-73.145,18.902C279.962,278.132,310.713,309.081,332.699,316.866z"/>
<path style="fill:#3E3D42;" d="M312.132,258.096c5.012-14.155,24.773-21.135,44.083-22.242c-22.947-5.69-61.201-0.23-68.467,20.289
	c-7.785,21.987,22.965,52.934,44.952,60.72c7.694,2.724,15.65,3.078,23.077,1.454C333.902,309.806,304.499,279.652,312.132,258.096z
	"/>
<path style="fill:#FFEB99;" d="M280.386,162.967H263.5v-20.298c0-4.142-3.358-7.5-7.5-7.5s-7.5,3.358-7.5,7.5v20.298h-16.886
	c-4.142,0-7.5,3.358-7.5,7.5c0,4.142,3.358,7.5,7.5,7.5H248.5v43.928c0,4.142,3.358,7.5,7.5,7.5s7.5-3.358,7.5-7.5v-43.928h16.886
	c4.142,0,7.5-3.358,7.5-7.5C287.886,166.325,284.528,162.967,280.386,162.967z"/>
<path style="fill:#00DDC2;" d="M273.837,64.6c0,9.851-7.986,41.93-17.837,41.93s-17.837-32.079-17.837-41.93
	S246.149,46.763,256,46.763S273.837,54.748,273.837,64.6z"/>
<path style="fill:#00CCB3;" d="M255.977,65.708c0-6.996,4.038-13.035,9.901-15.957c-2.829-1.885-6.223-2.988-9.878-2.988
	c-9.851,0-17.837,7.986-17.837,17.837s7.986,41.93,17.837,41.93c3.126,0,6.062-3.235,8.617-7.959
	C259.44,88.313,255.977,72.194,255.977,65.708z"/>
<path style="fill:#00DDC2;" d="M186.476,121.738c6.173,4.192,22.876,22.847,18.683,29.02c-4.192,6.173-27.691-2.473-33.865-6.665
	c-6.173-4.192-7.779-12.595-3.587-18.768C171.9,119.151,180.303,117.546,186.476,121.738z"/>
<path style="fill:#00CCB3;" d="M178.611,134.839c-4.708-3.197-6.749-8.842-5.598-14.081c-2.072,0.998-3.921,2.527-5.306,4.566
	c-4.192,6.173-2.586,14.576,3.587,18.768c6.173,4.192,29.672,12.838,33.865,6.665c1.128-1.661,0.734-4.23-0.552-7.175
	C195.869,142.936,182.955,137.788,178.611,134.839z"/>
<path style="fill:#00DDC2;" d="M325.524,121.738c-6.173,4.192-22.876,22.847-18.683,29.02c4.192,6.173,27.691-2.473,33.865-6.665
	c6.173-4.192,7.779-12.595,3.587-18.768C340.1,119.151,331.697,117.546,325.524,121.738z"/>
<g>
	<path style="fill:#FF9478;" d="M218.801,123.64l-16.113-23.529c-2.34-3.417-1.467-8.085,1.95-10.426
		c3.418-2.34,8.086-1.467,10.426,1.95l16.113,23.529c2.34,3.417,1.467,8.085-1.95,10.426
		C227.933,126.478,222.764,129.129,218.801,123.64z"/>
	<path style="fill:#FF9478;" d="M282.772,125.59c-3.417-2.34-4.291-7.008-1.95-10.426l16.113-23.529
		c2.34-3.417,7.008-4.291,10.426-1.95c3.417,2.34,4.291,7.008,1.95,10.426l-16.113,23.529
		C289.691,128.485,284.068,126.478,282.772,125.59z"/>
	<path style="fill:#FF9478;" d="M199.592,186.77h-13.353c-4.142,0-7.5-3.358-7.5-7.5c0-4.142,3.358-7.5,7.5-7.5h13.353
		c4.142,0,7.5,3.358,7.5,7.5C207.092,183.412,203.734,186.77,199.592,186.77z"/>
	<path style="fill:#FF9478;" d="M325.76,186.77h-13.353c-4.142,0-7.5-3.358-7.5-7.5c0-4.142,3.358-7.5,7.5-7.5h13.353
		c4.142,0,7.5,3.358,7.5,7.5C333.26,183.412,329.902,186.77,325.76,186.77z"/>
</g>
<path style="fill:#FF728B;" d="M119.048,108.242c43.711-2.296,21.303-48.13-1.085-35.717c-19.438,23.369-33.091,51.697-38.694,82.73
	c8.143,19.655,50.678,9.711,28.374-24.624C136.136,174.495,171.281,105.498,119.048,108.242z"/>
<path style="fill:#FF3F62;" d="M107.644,130.631c7.798,12.005,16.091,15.544,22.958,14.426c0.101-12.792,1.287-24.507,3.209-35.161
	c-3.851-1.319-8.714-1.973-14.762-1.655c6.797-0.357,11.993-1.768,15.841-3.847c1.823-8.64,4.12-16.533,6.687-23.689
	c-4.382-8.094-13.997-13.511-23.613-8.179c-19.438,23.369-33.091,51.697-38.694,82.73
	C87.412,174.911,129.947,164.967,107.644,130.631z"/>
<path style="fill:#FFE477;" d="M115.46,108.428c-0.4-7.616-4.714-14.094-10.887-17.601c-7.68,12.019-13.971,25-18.641,38.714
	c2.818,1.134,5.92,1.691,9.154,1.521C106.962,130.438,116.084,120.305,115.46,108.428z"/>
<path style="fill:#FF728B;" d="M432.731,155.255c-5.603-31.033-19.255-59.361-38.694-82.73
	c-22.388-12.414-44.796,33.421-1.085,35.716c-52.233-2.744-17.088,66.253,11.404,22.389
	C382.053,164.968,424.588,174.911,432.731,155.255z"/>
<path style="fill:#FFEB99;" d="M426.069,129.54c-4.671-13.713-10.961-26.694-18.641-38.714c-6.173,3.507-10.487,9.985-10.887,17.601
	c-0.624,11.876,8.498,22.01,20.375,22.634C420.149,131.232,423.251,130.674,426.069,129.54z"/>
<path style="fill:#00CCB3;" d="M333.389,134.839c4.708-3.197,6.749-8.842,5.598-14.081c2.072,0.998,3.921,2.527,5.306,4.566
	c4.192,6.173,2.586,14.576-3.587,18.768c-6.173,4.192-29.672,12.838-33.865,6.665c-1.128-1.661-0.734-4.23,0.552-7.175
	C316.131,142.936,329.045,137.788,333.389,134.839z"/>
<path d="M233.953,371.091c5.311,2.865,12.316,4.199,22.047,4.199s16.737-1.334,22.047-4.199c5.29-2.854,11.596-8.767,11.596-20.729
	c0-8.743-3.348-21.973-8.331-32.923c-6.961-15.295-15.714-23.379-25.313-23.379c-9.599,0-18.352,8.084-25.313,23.379
	c-4.983,10.949-8.331,24.18-8.331,32.923C222.356,362.324,228.663,368.237,233.953,371.091z M244.34,323.651
	c4.873-10.707,9.643-14.593,11.66-14.593s6.787,3.886,11.66,14.593c4.585,10.074,6.984,21.062,6.984,26.709
	c0,4.423,0,9.929-18.644,9.929s-18.644-5.505-18.644-9.929C237.357,344.713,239.755,333.726,244.34,323.651z"/>
<path d="M433.918,264.547c-2.521-5.027-2.85-11.169-0.903-16.853c6.703-19.564,10.086-40.059,10.056-60.913
	c-0.046-31.829-8.35-63.331-24.013-91.098c-15.203-26.951-37.041-49.979-63.153-66.593c-3.496-2.226-8.131-1.193-10.354,2.302
	c-2.224,3.495-1.193,8.13,2.302,10.354c10.466,6.659,20.184,14.439,28.979,23.147c-2.121,0.94-4.171,2.189-6.095,3.784
	c-8.589,7.12-12.331,18.905-9.101,28.658c0.909,2.744,2.691,6.32,6.18,9.595c-4.414,3.328-7.366,7.835-8.601,13.181
	c-2.803,12.132,4.242,25.962,15.703,30.829c5.063,2.149,10.457,2.409,15.756,0.781c0.478,3.889,1.778,6.876,2.984,8.953
	c10.208,17.577,30.87,11.027,33.604,9.853c0.528,5.401,0.8,10.832,0.808,16.274c0.028,19.189-3.083,38.041-9.246,56.03
	c-3.244,9.469-2.629,19.834,1.685,28.438c5.018,10.006,7.562,20.79,7.562,32.05c0,27.08-9.293,46.809-27.623,58.637
	c-15.916,10.271-35.022,12.285-44.995,12.571c-9.455,0.271-17.648,6.228-20.875,15.173l-2.442,6.772
	c-1.892,5.246-6.909,8.77-12.486,8.77h-8.044v-6.046c0-4.142-3.358-7.5-7.5-7.5s-7.5,3.358-7.5,7.5v6.046h-17.069v-6.046
	c0-4.142-3.358-7.5-7.5-7.5c-4.142,0-7.5,3.358-7.5,7.5v6.046h-17.069v-6.046c0-4.142-3.358-7.5-7.5-7.5s-7.5,3.358-7.5,7.5v6.046
	h-17.069v-6.046c0-4.142-3.358-7.5-7.5-7.5c-4.142,0-7.5,3.358-7.5,7.5v6.046h-8.045c-5.577,0-10.594-3.524-12.486-8.77
	l-2.442-6.772c-3.226-8.946-11.42-14.902-20.875-15.173c-9.972-0.286-29.078-2.3-44.995-12.571
	c-18.329-11.828-27.623-31.556-27.623-58.637c0-11.261,2.544-22.044,7.562-32.05c4.314-8.604,4.929-18.969,1.685-28.438
	c-6.163-17.989-9.274-36.841-9.246-56.03c0.024-16.589,2.425-32.837,7.02-48.367c0.984,0.102,6.425,0.739,11.908-1.244
	c3.046,5.376,4.259,10.174,3.423,13.698c-0.521,2.197-1.855,3.936-3.967,5.17c-3.576,2.09-4.781,6.684-2.69,10.26
	c1.395,2.386,6.073,4.789,10.26,2.69c5.826-2.92,9.53-8.494,10.993-14.658c0.205-0.863,0.363-1.736,0.475-2.621
	c5.292,1.618,10.677,1.357,15.731-0.79c11.461-4.867,18.506-18.696,15.703-30.829c-1.235-5.346-4.187-9.853-8.601-13.181
	c3.488-3.275,5.271-6.852,6.18-9.595c3.23-9.753-0.512-21.538-9.101-28.658c-1.925-1.596-3.976-2.846-6.098-3.786
	C167.663,32.716,210.528,15,256,15c22.33,0,44.072,4.258,64.623,12.656c3.834,1.565,8.212-0.272,9.78-4.106
	c1.567-3.834-0.271-8.213-4.105-9.78C303.937,4.633,280.285,0,256,0c-49.831,0-96.779,19.541-132.197,55.025
	c-35.314,35.379-54.801,82.17-54.874,131.756c-0.03,20.854,3.353,41.349,10.056,60.913c1.947,5.683,1.618,11.826-0.903,16.853
	c-6.074,12.112-9.153,25.158-9.153,38.775c0,32.503,11.604,56.472,34.49,71.24c18.977,12.247,41.163,14.63,52.697,14.961
	c3.2,0.092,6.091,2.209,7.195,5.268l2.442,6.772c4.03,11.173,14.718,18.681,26.596,18.681h8.045v6.047c0,4.142,3.358,7.5,7.5,7.5
	c4.142,0,7.5-3.358,7.5-7.5v-6.047h17.069v6.047c0,4.142,3.358,7.5,7.5,7.5s7.5-3.358,7.5-7.5v-6.047h17.069v6.047
	c0,4.142,3.358,7.5,7.5,7.5c4.142,0,7.5-3.358,7.5-7.5v-6.047h17.071v6.047c0,4.142,3.358,7.5,7.5,7.5s7.5-3.358,7.5-7.5v-6.047
	h8.045c11.878,0,22.567-7.507,26.596-18.681l2.442-6.771c1.104-3.059,3.995-5.176,7.195-5.268c2.19-0.063,4.766-0.2,7.629-0.465
	v30.439c0,40.092-30.601,73.169-69.673,77.107c-1.633-2.561-3.496-4.919-5.559-7.058c1.873,0.877,4.058,1.333,6.575,1.333
	c3.294,0,7.134-0.752,11.504-2.258c6.359-2.191,13.277-5.824,16.823-8.833c4.058-3.444,6.531-8.262,6.965-13.567
	c0.434-5.305-1.224-10.461-4.668-14.519c-7.111-8.376-19.71-9.407-28.086-2.296c-3.545,3.01-8.253,9.246-11.448,15.165
	c-4.735,8.772-5.597,15.672-2.604,20.56c-7.676-5.893-17.187-9.24-27.341-9.24s-19.665,3.348-27.341,9.24
	c2.993-4.888,2.131-11.788-2.604-20.56c-3.195-5.919-7.903-12.155-11.448-15.165c-8.376-7.11-20.976-6.08-28.086,2.296
	c-3.444,4.058-5.102,9.214-4.668,14.519c0.434,5.305,2.907,10.123,6.965,13.567c3.545,3.01,10.463,6.642,16.823,8.833
	c4.371,1.506,8.21,2.258,11.504,2.258c2.516,0,4.702-0.455,6.575-1.333c-2.063,2.139-3.925,4.497-5.559,7.058
	c-39.072-3.937-69.673-37.015-69.673-77.107v-7.733c0-4.142-3.358-7.5-7.5-7.5s-7.5,3.358-7.5,7.5v7.733
	c0,51.006,41.496,92.501,92.501,92.501h60.023c51.006,0,92.501-41.496,92.501-92.501v-32.781
	c9.606-2.139,20.263-5.829,30.067-12.156c22.885-14.769,34.49-38.738,34.49-71.24C443.071,289.706,439.991,276.659,433.918,264.547z
	 M380.78,137.134c-4.815-2.044-8.128-8.549-6.951-13.646c1.511-6.539,10.129-7.752,15.835-7.817
	c1.077,4.993,3.444,9.538,6.757,13.239C393.014,133.49,386.96,139.761,380.78,137.134z M390.456,100.508
	c-7.941-0.904-13.198-3.711-14.581-7.888c-1.292-3.899,0.615-9.228,4.435-12.394c2.011-1.667,5.117-3.201,8.889-1.702
	c2.836,3.47,5.551,7.04,8.113,10.72C394.185,92.422,391.84,96.269,390.456,100.508z M404.029,108.822
	c0.115-2.183,0.748-4.248,1.776-6.089c0.061,0.107,0.126,0.212,0.187,0.32c3.706,6.571,6.956,13.372,9.752,20.343
	C408.794,122.246,403.652,116.018,404.029,108.822z M417.238,157.71c-4.549,0.318-8.831-1.549-10.654-4.646
	c-2.113-3.588-1.165-9.282,2.562-15.87c5.718,2.213,10.878,1.347,11.842,1.25c1.527,5.144,2.813,10.358,3.851,15.622
	C422.655,156.986,418.923,157.592,417.238,157.71z M131.22,137.134c-6.182,2.625-12.234-3.644-15.641-8.224
	c3.313-3.701,5.68-8.246,6.757-13.239c5.706,0.064,14.325,1.277,15.835,7.817C139.348,128.585,136.035,135.089,131.22,137.134z
	 M122.725,78.553c3.809-1.551,6.942-0.006,8.966,1.672c3.82,3.167,5.726,8.495,4.435,12.394c-1.384,4.177-6.64,6.984-14.581,7.888
	c-1.388-4.251-3.742-8.106-6.881-11.29C117.204,85.576,119.889,82.017,122.725,78.553z M106.162,102.67
	c1.048,1.855,1.693,3.943,1.809,6.151c0.379,7.225-4.805,13.477-11.796,14.592C99.029,116.297,102.357,109.367,106.162,102.67z
	 M307.101,460.842c0.924-0.785,4.464-2.607,6.943,0.568c2.48,3.175,0.435,6.091-0.568,6.943c-3.317,2.816-11.425,6.309-16.208,7.297
	C299.021,471.09,303.784,463.657,307.101,460.842z M198.524,468.353c-1.003-0.852-3.137-3.686-0.568-6.943s6.019-1.353,6.943-0.568
	c3.317,2.815,8.081,10.248,9.833,14.808C209.948,474.662,201.84,471.169,198.524,468.353z M237.845,497
	c5.105-3.897,11.418-6.109,18.155-6.109c6.737,0,13.051,2.212,18.155,6.109H237.845z"/>
<path d="M110.744,315.393c3.596,3.589,8.014,5.277,11.758,6.052c2.912,9.055,11.416,15.625,21.426,15.625
	c2.096,0,4.162-0.291,6.15-0.856c4.04,3.57,9.262,5.586,14.84,5.586c6.764,0,13.041-3.09,17.234-8.074
	c2.459,0.836,5.012,1.188,7.553,1.029c8.87-0.568,13.961-4.365,16.671-7.451c2.18-2.482,3.488-5.18,4.264-7.668
	c11.192-1.223,19.943-10.688,20.038-22.178c2.589-0.895,5.386-2.321,7.916-4.584c4.408-3.944,6.856-9.512,7.081-16.101
	c0.135-3.963-0.888-7.882-2.895-11.354c1.878-3.337,2.899-7.13,2.899-11.014c0-11.953-9.369-21.759-21.149-22.46
	c-2.565-9.603-11.34-16.697-21.741-16.697c-3.409,0-6.724,0.771-9.723,2.212c-4.099-3.924-9.618-6.223-15.549-6.223
	c-5.43,0-10.596,1.996-14.606,5.42c-3.369-1.896-7.196-2.893-11.086-2.834c-8.588,0.152-13.682,3.743-16.443,6.728
	c-2.428,2.625-3.869,5.581-4.717,8.303c-11.854,0.622-21.309,10.462-21.309,22.469c0,1.858,0.224,3.681,0.663,5.442
	c-5.828,4.121-9.555,10.915-9.555,18.394c0,5.847,2.287,11.355,6.173,15.462c-1.188,2.75-1.829,5.749-1.865,8.861
	C104.677,307.611,107.967,312.621,110.744,315.393z M121.463,267.808c2.539-0.513,4.634-2.3,5.541-4.727
	c0.906-2.427,0.497-5.149-1.084-7.202c-0.713-0.926-1.563-2.468-1.563-4.559c0-4.135,3.364-7.5,7.5-7.5
	c0.855,0,1.72,0.158,2.57,0.469c2.377,0.871,5.03,0.497,7.058-1.014c2.029-1.51,3.161-3.929,3.009-6.454
	c-0.049-1.078,0.202-4.279,1.925-6.113c0.422-0.45,1.708-1.819,5.672-1.889c2.26-0.075,4.419,1.092,5.866,3.025
	c1.577,2.106,4.14,3.229,6.759,2.967c2.617-0.265,4.904-1.882,6.027-4.261c1.237-2.621,3.896-4.315,6.775-4.315
	c3.047,0,5.769,1.823,6.934,4.646c0.997,2.414,3.177,4.136,5.756,4.545c2.578,0.412,5.186-0.552,6.881-2.538
	c1.434-1.68,3.512-2.643,5.702-2.643c4.136,0,8.336,2.866,7.362,8.89c-0.438,2.709,0.505,5.455,2.631,7.19
	c2.125,1.734,5.03,2.17,7.572,1.134c0.907-0.37,1.857-0.557,2.825-0.557c4.136,0,7.5,3.364,7.5,7.5c0,2.115-0.871,4.077-2.452,5.524
	c-1.552,1.42-2.437,3.428-2.437,5.533s0.884,4.112,2.437,5.533c0.769,0.704,2.546,2.625,2.457,5.269
	c-0.233,6.838-5.979,7.667-8.5,7.698c-2.464-0.066-4.806,1.1-6.256,3.111c-1.529,2.121-1.844,4.884-0.831,7.294
	c0.386,0.918,0.582,1.896,0.582,2.903c0,4.136-3.364,7.5-7.5,7.5c-0.641,0-1.311-0.095-1.991-0.282
	c-2.305-0.634-4.772-0.132-6.646,1.351c-1.874,1.483-2.929,3.77-2.84,6.158c0.002,0.071,0.167,3.401-1.597,5.409
	c-1.218,1.387-3.358,2.188-6.361,2.38c-1.883,0.126-3.608-1.14-4.471-1.902c-1.924-1.7-4.585-2.296-7.05-1.584
	c-2.466,0.714-4.396,2.639-5.115,5.104c-0.927,3.177-3.884,5.396-7.192,5.396c-2.619,0-5.007-1.346-6.389-3.601
	c-1.06-1.729-2.829-2.762-4.755-3.399c-2.356-0.78-4.519,0.238-5.75,1.045c-1.223,0.801-2.639,1.225-4.096,1.225
	c-4.136,0-7.5-3.364-7.5-7.5c0-2.007-0.804-3.93-2.232-5.339c-1.428-1.41-3.447-2.171-5.461-2.161
	c-1.849,0.013-5.525-0.43-7.394-2.294c-0.398-0.397-1.61-1.607-1.57-5.119c0.024-2.113,0.832-4.05,2.274-5.455
	c1.778-1.731,2.584-4.229,2.153-6.673c-0.43-2.444-2.042-4.517-4.304-5.537c-2.691-1.213-4.431-3.896-4.431-6.833
	C115.463,271.602,117.986,268.51,121.463,267.808z"/>
<path d="M381.339,228.853c-0.848-2.722-2.289-5.678-4.717-8.303c-2.761-2.985-7.855-6.575-16.444-6.728
	c-3.892-0.063-7.716,0.939-11.085,2.834c-4.01-3.424-9.176-5.42-14.606-5.42c-5.932,0-11.45,2.299-15.549,6.224
	c-3-1.441-6.314-2.212-9.723-2.212c-10.401,0-19.176,7.094-21.741,16.697c-11.78,0.701-21.149,10.507-21.149,22.46
	c0,3.884,1.02,7.677,2.899,11.014c-2.006,3.471-3.029,7.39-2.895,11.354l0,0c0.225,6.594,2.677,12.165,7.091,16.109
	c2.453,2.191,5.257,3.626,7.905,4.549c0.081,11.502,8.837,20.981,20.039,22.205c0.775,2.487,2.083,5.185,4.264,7.667
	c2.71,3.086,7.802,6.883,16.672,7.452c2.539,0.162,5.093-0.193,7.553-1.03c4.194,4.984,10.47,8.074,17.234,8.074
	c5.578,0,10.8-2.017,14.84-5.586c1.988,0.566,4.054,0.856,6.15,0.856c10.009,0,18.513-6.57,21.425-15.623
	c3.74-0.775,8.161-2.463,11.758-6.054c2.777-2.771,6.067-7.781,5.973-15.91c-0.036-3.112-0.677-6.112-1.865-8.861
	c3.887-4.107,6.173-9.615,6.173-15.462c0-7.479-3.727-14.273-9.555-18.394c0.439-1.761,0.663-3.584,0.663-5.442
	C402.648,239.315,393.194,229.474,381.339,228.853z M392.11,281.991c-2.262,1.02-3.874,3.093-4.304,5.537
	c-0.431,2.444,0.375,4.942,2.153,6.673c1.442,1.405,2.25,3.342,2.274,5.455c0.041,3.512-1.171,4.722-1.57,5.119
	c-1.868,1.865-5.528,2.31-7.394,2.294c-2.028-0.037-4.032,0.751-5.461,2.161c-1.428,1.409-2.232,3.332-2.232,5.339
	c0,4.136-3.364,7.5-7.5,7.5c-1.457,0-2.873-0.424-4.096-1.225c-1.697-1.112-3.773-1.489-5.75-1.045
	c-1.979,0.443-3.695,1.67-4.755,3.399c-1.382,2.255-3.771,3.601-6.389,3.601c-3.308,0-6.265-2.219-7.192-5.396
	c-0.719-2.465-2.649-4.39-5.115-5.104c-0.687-0.199-4.291-0.859-7.05,1.584c-0.862,0.763-2.587,2.018-4.471,1.902
	c-3.002-0.192-5.142-0.993-6.36-2.38c-1.763-2.008-1.611-5.142-1.609-5.173c0.005-0.071,0.199-3.69-2.826-6.393
	c-1.781-1.591-4.34-1.983-6.644-1.353c-0.683,0.188-1.354,0.283-1.994,0.283c-4.136,0-7.5-3.364-7.5-7.5
	c0-1.008,0.196-1.985,0.583-2.905c1.014-2.411,0.698-5.177-0.834-7.297c-1.451-2.009-3.8-3.166-6.255-3.107
	c-2.521-0.032-8.265-0.86-8.498-7.698c-0.09-2.645,1.688-4.565,2.456-5.268c1.553-1.421,2.437-3.429,2.437-5.534
	c0-2.104-0.885-4.113-2.438-5.533c-1.581-1.446-2.451-3.407-2.451-5.522c0-4.136,3.364-7.5,7.5-7.5c0.969,0,1.918,0.187,2.823,0.556
	c2.54,1.036,5.445,0.603,7.571-1.131c2.127-1.733,3.138-4.49,2.635-7.188c-0.093-0.5-1.366-8.148,7.361-8.894
	c2.182-0.186,4.268,0.963,5.701,2.642c1.695,1.986,4.299,2.949,6.881,2.538c2.579-0.41,4.76-2.132,5.756-4.546
	c1.165-2.822,3.886-4.646,6.934-4.646c2.878,0,5.538,1.694,6.775,4.315c1.123,2.379,3.41,3.996,6.027,4.261
	c2.618,0.262,5.183-0.861,6.759-2.967c1.447-1.934,3.625-3.088,5.865-3.025c3.965,0.07,5.251,1.439,5.673,1.889
	c1.723,1.834,1.974,5.035,1.926,6.087c-0.152,2.525,0.979,4.957,3.008,6.467c2.028,1.51,4.683,1.897,7.057,1.027
	c0.851-0.312,1.715-0.469,2.57-0.469c4.136,0,7.5,3.365,7.5,7.5c0,2.09-0.85,3.633-1.563,4.559c-1.581,2.052-1.99,4.775-1.084,7.202
	c0.907,2.426,3.001,4.213,5.541,4.727c3.477,0.702,6,3.793,6,7.35C396.541,278.095,394.801,280.777,392.11,281.991z"/>
<path d="M256,114.03c8.016,0,14.458-7.294,19.694-22.299c3.27-9.372,5.643-20.781,5.643-27.13c0-13.971-11.366-25.337-25.337-25.337
	S230.663,50.629,230.663,64.6c0,6.349,2.374,17.758,5.643,27.13C241.542,106.735,247.984,114.03,256,114.03z M256,54.262
	c5.7,0,10.337,4.637,10.337,10.337c0,8.605-5.907,28.545-10.337,33.693c-4.431-5.147-10.337-25.087-10.337-33.693
	C245.663,58.899,250.3,54.262,256,54.262z"/>
<path d="M167.082,150.297c4.126,2.802,12.518,6.276,19.954,8.261c2.308,0.616,6.99,1.866,11.81,1.866
	c4.753,0,9.641-1.216,12.519-5.453c5.795-8.534-2.81-20.126-5.637-23.936c-4.587-6.181-10.912-12.7-15.038-15.501
	c-4.642-3.153-10.235-4.308-15.748-3.256c-5.512,1.054-10.285,4.19-13.438,8.833C154.994,130.695,157.497,143.788,167.082,150.297z
	 M173.913,129.538c1.221-2.165,4.87-3.945,8.349-1.595l0,0c4.922,3.343,12.08,12.194,14.882,17.372
	c-5.847-0.696-16.714-4.084-21.636-7.427C172.767,136.026,172.284,132.424,173.913,129.538z"/>
<path d="M306.274,131.035c-2.828,3.81-11.432,15.402-5.637,23.936c2.877,4.238,7.765,5.453,12.519,5.453
	c4.82,0,9.502-1.25,11.81-1.866c7.436-1.985,15.828-5.459,19.954-8.261c9.584-6.509,12.086-19.602,5.578-29.186
	c-3.153-4.643-7.925-7.78-13.438-8.833c-5.514-1.052-11.105,0.103-15.748,3.256C317.185,118.335,310.861,124.854,306.274,131.035z
	 M329.738,127.942L329.738,127.942c3.843-2.779,7.448,0.267,8.35,1.595c1.862,2.742,1.146,6.488-1.596,8.35
	c-4.923,3.343-15.79,6.731-21.636,7.427C317.658,140.136,324.816,131.285,329.738,127.942z"/>
<g>
</g>
<g>
</g>
<g>
</g>
<g>
</g>
<g>
</g>
<g>
</g>
<g>
</g>
<g>
</g>
<g>
</g>
<g>
</g>
<g>
</g>
<g>
</g>
<g>
</g>
<g>
</g>
<g>
</g>
</svg>
