<?xml version="1.0" encoding="iso-8859-1"?>
<!-- Generator: Adobe Illustrator 19.0.0, SVG Export Plug-In . SVG Version: 6.00 Build 0)  -->
<svg version="1.1" id="Capa_1" xmlns="http://www.w3.org/2000/svg" xmlns:xlink="http://www.w3.org/1999/xlink" x="0px" y="0px"
	 viewBox="0 0 512 512" style="enable-background:new 0 0 512 512;" xml:space="preserve">
<path style="fill:#EC5569;" d="M467.925,84.826L467.925,84.826c-48.013-48.013-125.858-48.013-173.872,0l-27.121,27.121
	c-6.467,6.467-16.952,6.467-23.419,0L216.825,85.26c-48.013-48.013-125.858-48.013-173.871,0l0,0
	c-48.013,48.013-48.013,125.858,0,173.872L243.53,459.708c6.467,6.467,16.952,6.467,23.419,0l200.976-201.01
	C515.938,210.685,515.938,132.84,467.925,84.826z"/>
<path style="fill:#E63950;" d="M72.974,259.132c-48.013-48.013-48.013-125.858,0-173.872l0,0
	c20.182-20.182,45.634-31.877,71.926-35.093c-36.258-4.435-74.114,7.261-101.945,35.093l0,0
	c-48.013,48.013-48.013,125.858,0,173.872L243.53,459.708c6.467,6.467,16.952,6.467,23.419,0l3.3-3.301L72.974,259.132z"/>
<path style="fill:#CC2E43;" d="M118.435,227.216c92.254-93.615,183.493-83.676,274.009,0
	C303.362,304.961,212.099,307.491,118.435,227.216z"/>
<path style="fill:#FFF5F5;" d="M118.435,227.217c92.254-52.226,183.493-46.681,274.009,0
	C303.362,270.589,212.099,272,118.435,227.217z"/>
<path style="fill:#B5D3E3;" d="M246.933,190.155c4.967-0.105,9.932-0.063,14.894,0.125c45.147,1.707,44.779,69.091-0.391,69.947
	c-4.958,0.094-9.923,0.058-14.895-0.109C201.214,258.599,201.591,191.116,246.933,190.155z"/>
<path style="fill:#8ABBD5;" d="M267.788,190.925c-1.891-0.346-3.877-0.566-5.962-0.645c-4.962-0.188-9.927-0.23-14.894-0.125
	c-45.342,0.962-45.719,68.445-0.391,69.963c4.972,0.167,9.937,0.202,14.895,0.109c2.496-0.047,4.849-0.308,7.071-0.74
	C231.658,252.852,231.601,198.081,267.788,190.925z"/>
<path d="M473.791,78.808c-50.862-50.862-133.622-50.862-184.484,0l-27.121,27.121c-3.531,3.53-9.276,3.53-12.807,0l-26.687-26.687
	c-24.639-24.639-57.397-38.209-92.242-38.209s-67.604,13.57-92.243,38.209S0,136.64,0,171.484s13.57,67.603,38.209,92.243
	c2.931,2.931,7.683,2.931,10.612,0c2.931-2.931,2.931-7.683,0-10.612c-21.804-21.805-33.812-50.795-33.812-81.63
	s12.008-59.825,33.812-81.629s50.794-33.812,81.63-33.812c30.835,0,59.825,12.008,81.629,33.812l26.687,26.687
	c9.383,9.383,24.65,9.383,34.032,0l27.121-27.121c45.011-45.01,118.248-45.01,163.26,0c45.011,45.011,45.011,118.248,0,163.26
	L262.203,453.689c-3.531,3.53-9.276,3.531-12.807,0L70.167,274.459c-2.931-2.931-7.683-2.931-10.612,0
	c-2.931,2.931-2.931,7.683,0,10.612l179.23,179.23c4.691,4.691,10.853,7.037,17.015,7.037c6.162,0,12.325-2.345,17.017-7.037
	l200.975-201.009C498.431,238.654,512,205.895,512,171.05C512,136.206,498.43,103.446,473.791,78.808z"/>
<path d="M400.505,226.527c0.001-0.294-0.018-0.585-0.051-0.875c-0.011-0.097-0.027-0.193-0.042-0.289
	c-0.035-0.224-0.079-0.446-0.134-0.666c-0.023-0.092-0.044-0.184-0.07-0.275c-0.085-0.295-0.183-0.586-0.303-0.868
	c-0.001-0.002-0.001-0.004-0.002-0.006c-0.122-0.284-0.267-0.558-0.423-0.825c-0.046-0.078-0.096-0.153-0.144-0.229
	c-0.121-0.191-0.251-0.377-0.39-0.557c-0.059-0.076-0.116-0.152-0.178-0.226c-0.166-0.2-0.344-0.391-0.532-0.574
	c-0.037-0.036-0.07-0.076-0.108-0.111c-0.01-0.009-0.018-0.02-0.028-0.029c-47.799-44.187-95.321-67.226-141.244-68.476
	c-48.78-1.311-96.946,21.786-143.183,68.697c-0.005,0.005-0.011,0.011-0.016,0.016c-0.002,0.002-0.004,0.004-0.007,0.006
	c-0.212,0.216-0.406,0.445-0.589,0.682c-0.057,0.073-0.108,0.149-0.161,0.224c-0.128,0.179-0.249,0.363-0.36,0.552
	c-0.049,0.083-0.098,0.166-0.144,0.25c-0.122,0.226-0.232,0.457-0.329,0.694c-0.019,0.045-0.042,0.088-0.06,0.134
	c-0.11,0.281-0.2,0.57-0.275,0.864c-0.021,0.084-0.037,0.169-0.055,0.253c-0.049,0.221-0.088,0.444-0.116,0.67
	c-0.012,0.096-0.024,0.192-0.033,0.29c-0.023,0.262-0.032,0.527-0.027,0.792c0.001,0.04-0.005,0.079-0.004,0.119
	c0,0.009,0.002,0.017,0.003,0.026c0,0.01-0.001,0.02,0,0.03c0.013,0.3,0.048,0.596,0.096,0.89c0.014,0.089,0.035,0.176,0.053,0.264
	c0.044,0.22,0.097,0.438,0.16,0.652c0.028,0.094,0.055,0.188,0.087,0.281c0.082,0.243,0.177,0.481,0.283,0.715
	c0.02,0.044,0.036,0.091,0.057,0.134c0.131,0.271,0.28,0.533,0.443,0.787c0.047,0.073,0.098,0.142,0.147,0.213
	c0.126,0.183,0.26,0.361,0.403,0.534c0.063,0.076,0.125,0.15,0.191,0.223c0.161,0.179,0.332,0.35,0.511,0.515
	c0.049,0.045,0.094,0.093,0.144,0.137c0.013,0.011,0.024,0.025,0.038,0.036c13.265,11.369,26.539,21.147,39.815,29.339
	l-10.008,14.454c-2.359,3.408-1.51,8.083,1.897,10.442c1.304,0.903,2.792,1.335,4.266,1.335c2.379,0,4.72-1.129,6.177-3.233
	l10.707-15.465c10.354,5.579,20.709,10.191,31.059,13.839l-10.676,41.239c-1.039,4.012,1.372,8.107,5.384,9.145
	c0.63,0.163,1.263,0.241,1.886,0.241c3.338,0,6.384-2.244,7.259-5.626l10.499-40.555c12.047,3.208,24.087,5.101,36.116,5.691v58.931
	c0,4.144,3.36,7.504,7.504,7.504c4.144,0,7.504-3.36,7.504-7.504v-58.881c12.107-0.503,24.2-2.332,36.273-5.493l10.338,40.292
	c0.87,3.389,3.919,5.641,7.263,5.641c0.617,0,1.245-0.077,1.87-0.237c4.014-1.03,6.434-5.119,5.404-9.133l-10.505-40.944
	c10.515-3.677,21.012-8.368,31.49-14.065l10.104,14.593c1.457,2.104,3.796,3.233,6.177,3.233c1.473,0,2.962-0.433,4.266-1.335
	c3.407-2.359,4.257-7.034,1.897-10.442l-9.445-13.64c13.139-8.209,26.243-18.01,39.303-29.408c0.016-0.014,0.029-0.03,0.045-0.044
	c0.053-0.047,0.101-0.1,0.153-0.149c0.177-0.167,0.346-0.34,0.506-0.521c0.066-0.076,0.129-0.153,0.192-0.231
	c0.142-0.176,0.275-0.359,0.401-0.546c0.049-0.074,0.101-0.145,0.147-0.22c0.162-0.262,0.31-0.531,0.439-0.81
	c0.017-0.038,0.03-0.078,0.047-0.116c0.108-0.245,0.202-0.496,0.283-0.752c0.03-0.094,0.055-0.189,0.081-0.284
	c0.06-0.218,0.109-0.438,0.149-0.661c0.017-0.093,0.036-0.186,0.049-0.28c0.043-0.307,0.073-0.616,0.077-0.931
	c0-0.003,0-0.007,0-0.01c0-0.004,0.001-0.007,0.001-0.011C400.509,226.57,400.505,226.549,400.505,226.527z M257.665,278.258
	c-0.34,0.002-0.681,0.003-1.022,0.003c-27.736,0-55.897-7.828-84.167-23.325c24.707,7.076,49.403,11.069,73.906,11.942
	c0.158,0.007,0.31,0.022,0.468,0.027c0.085,0.003,0.17,0.004,0.255,0.004c0.015,0,0.029-0.002,0.044-0.002
	c3.167,0.104,6.331,0.161,9.49,0.161c0.367,0,0.739,0,1.106-0.002c1.448-0.006,2.897-0.022,4.346-0.05c0.015,0,0.031,0,0.046,0
	c0.015,0,0.03-0.002,0.046-0.002c25.959-0.502,52.033-4.532,77.991-12.032C312.618,270.257,285.012,278.069,257.665,278.258z
	 M256.538,196.919c2.074,0.031,4.155,0.103,6.238,0.188c17.968,1.007,25.904,14.627,25.78,27.834
	c-0.122,12.973-8.122,26.2-25.674,27.027c-1.731,0.04-3.463,0.084-5.193,0.09c-3.741,0.019-7.49-0.067-11.244-0.204
	c-17.811-1.035-25.724-14.513-25.643-27.615c0.081-13.193,8.283-26.668,26.397-27.274
	C250.309,196.892,253.423,196.871,256.538,196.919z M296.742,200.838c25.835,4.557,52.182,13.045,78.794,25.449
	c-26.302,11.411-52.825,19.048-79.303,22.882c4.77-7.138,7.251-15.654,7.331-24.086
	C303.644,216.649,301.342,208.084,296.742,200.838z M212.882,248.59c-25.569-4.048-51.299-11.621-76.954-22.64
	c25.28-12.761,51.008-21.345,76.951-25.7c-4.642,7.115-7.035,15.552-7.086,23.898C205.74,232.673,208.135,241.32,212.882,248.59z
	 M343.934,197.471c-27.354-9.175-54.384-14.321-80.833-15.376c-0.145-0.007-0.284-0.021-0.43-0.027
	c-0.058-0.002-0.114,0.003-0.172,0.003c-1.914-0.072-3.826-0.13-5.734-0.159c-3.116-0.048-6.229-0.035-9.341,0.031
	c-0.03,0-0.06-0.003-0.09-0.003c-0.108,0.002-0.211,0.011-0.319,0.014c-27.547,0.632-54.934,5.737-81.915,15.234
	C223.017,157.592,282.113,157.685,343.934,197.471z"/>
<path d="M247.752,227.349c0.19,0.45,0.42,0.891,0.69,1.291c0.27,0.41,0.58,0.8,0.931,1.141c0.35,0.35,0.73,0.66,1.141,0.941
	c0.41,0.27,0.84,0.5,1.291,0.68c0.46,0.19,0.931,0.34,1.411,0.43c0.48,0.1,0.971,0.15,1.461,0.15s0.991-0.05,1.471-0.15
	c0.48-0.09,0.951-0.24,1.401-0.43c0.45-0.18,0.891-0.41,1.301-0.68c0.41-0.28,0.79-0.59,1.141-0.941
	c0.34-0.34,0.66-0.73,0.931-1.141c0.27-0.4,0.5-0.84,0.69-1.291c0.19-0.45,0.33-0.931,0.43-1.411c0.09-0.48,0.14-0.971,0.14-1.461
	s-0.05-0.981-0.14-1.471c-0.1-0.48-0.24-0.951-0.43-1.401s-0.42-0.891-0.69-1.291c-0.27-0.42-0.59-0.8-0.931-1.151
	c-0.35-0.34-0.73-0.65-1.141-0.931c-0.41-0.27-0.85-0.5-1.301-0.69c-0.45-0.18-0.921-0.33-1.401-0.42c-0.971-0.2-1.961-0.2-2.932,0
	c-0.48,0.09-0.951,0.24-1.411,0.42c-0.45,0.19-0.881,0.42-1.291,0.69c-0.41,0.28-0.79,0.59-1.141,0.931
	c-0.35,0.35-0.66,0.73-0.931,1.151c-0.27,0.4-0.5,0.84-0.69,1.291c-0.19,0.45-0.33,0.921-0.43,1.401
	c-0.1,0.49-0.15,0.981-0.15,1.471s0.05,0.981,0.15,1.461C247.421,226.417,247.561,226.897,247.752,227.349z"/>
<g>
</g>
<g>
</g>
<g>
</g>
<g>
</g>
<g>
</g>
<g>
</g>
<g>
</g>
<g>
</g>
<g>
</g>
<g>
</g>
<g>
</g>
<g>
</g>
<g>
</g>
<g>
</g>
<g>
</g>
</svg>
