<?xml version="1.0" encoding="iso-8859-1"?>
<!-- Generator: Adobe Illustrator 19.0.0, SVG Export Plug-In . SVG Version: 6.00 Build 0)  -->
<svg version="1.1" id="Capa_1" xmlns="http://www.w3.org/2000/svg" xmlns:xlink="http://www.w3.org/1999/xlink" x="0px" y="0px"
	 viewBox="0 0 512.004 512.004" style="enable-background:new 0 0 512.004 512.004;" xml:space="preserve">
<circle style="fill:#FFCD00;" cx="65.682" cy="208.75" r="48.12"/>
<path style="fill:#DDB200;" d="M65.685,160.624c-10.334,0-19.899,3.268-27.741,8.812c10.154,31.527,37.467,55.423,70.89,60.627
	c3.18-6.426,4.976-13.659,4.976-21.314C113.809,182.17,92.263,160.624,65.685,160.624z"/>
<circle style="fill:#FFDE55;" cx="122.562" cy="142.25" r="63.875"/>
<g>
	<path style="fill:#FFCD00;" d="M134.711,79.534c-1.972,8.779-3.02,17.903-3.02,27.269c0,32.257,12.352,61.681,32.571,83.797
		c13.571-11.713,22.172-29.027,22.172-48.36C186.434,111.12,164.174,85.211,134.711,79.534z"/>
	<circle style="fill:#FFCD00;" cx="446.752" cy="209.04" r="48.12"/>
</g>
<path style="fill:#DDB200;" d="M474.498,169.727c-7.842-5.544-17.407-8.812-27.741-8.812c-26.578,0-48.125,21.546-48.125,48.125
	c0,7.655,1.796,14.889,4.976,21.314C437.031,225.15,464.345,201.254,474.498,169.727z"/>
<circle style="fill:#FFDE55;" cx="389.882" cy="142.54" r="63.875"/>
<path style="fill:#FFCD00;" d="M377.731,79.894c1.972,8.779,3.02,17.903,3.02,27.269c0,32.257-12.352,61.681-32.571,83.797
	c-13.571-11.713-22.172-29.027-22.172-48.36C326.008,111.479,348.267,85.571,377.731,79.894z"/>
<circle style="fill:#FFEB99;" cx="256.002" cy="106.81" r="99.31"/>
<path style="fill:#FFDE55;" d="M207.704,106.812c0-46.03,31.317-84.739,73.805-95.999c-8.14-2.158-16.688-3.313-25.507-3.313
	c-54.848,0-99.312,44.463-99.312,99.312s44.464,99.312,99.312,99.312c8.819,0,17.367-1.155,25.507-3.313
	C239.021,191.551,207.704,152.842,207.704,106.812z"/>
<path style="fill:#12B59E;" d="M49.369,214.336c-1.393-1.393-2.192-3.324-2.199-5.297c0-1.98,0.799-3.91,2.199-5.31
	c1.393-1.393,3.324-2.192,5.303-2.192c1.98,0,3.91,0.799,5.303,2.192c1.4,1.4,2.199,3.33,2.199,5.31
	c-0.007,1.973-0.806,3.904-2.199,5.297c-1.4,1.4-3.33,2.199-5.303,2.206C52.699,216.535,50.769,215.736,49.369,214.336z"/>
<circle style="fill:#57E5D0;" cx="256.002" cy="64.886" r="19.886"/>
<circle style="fill:#28C6AF;" cx="111.002" cy="131.89" r="14"/>
<path style="fill:#12B59E;" d="M462.635,214.336c1.393-1.393,2.192-3.324,2.199-5.297c0-1.98-0.799-3.91-2.199-5.31
	c-1.393-1.393-3.324-2.192-5.303-2.192s-3.91,0.799-5.303,2.192c-1.4,1.4-2.199,3.33-2.199,5.31
	c0.007,1.973,0.806,3.904,2.199,5.297c1.4,1.4,3.33,2.199,5.303,2.206C459.305,216.535,461.235,215.736,462.635,214.336z"/>
<circle style="fill:#28C6AF;" cx="401.002" cy="131.89" r="14"/>
<rect x="315.648" y="388.601" transform="matrix(-0.3887 -0.9214 0.9214 -0.3887 135.6311 882.191)" style="fill:#FF3333;" width="89.653" height="15"/>
<circle style="fill:#3E3D42;" cx="379.952" cy="442.23" r="26.69"/>
<rect x="394.448" y="323.394" transform="matrix(-0.7346 -0.6785 0.6785 -0.7346 537.4509 872.0147)" style="fill:#FF3333;" width="89.65" height="15"/>
<circle style="fill:#3E3D42;" cx="476.042" cy="364.87" r="26.69"/>
<rect x="144.02" y="351.283" transform="matrix(-0.9214 -0.3887 0.3887 -0.9214 137.163 819.9672)" style="fill:#FF3333;" width="15" height="89.653"/>
<circle style="fill:#3E3D42;" cx="132.052" cy="442.23" r="26.69"/>
<rect x="65.247" y="286.067" transform="matrix(-0.6785 -0.7346 0.7346 -0.6785 -120.9679 608.8429)" style="fill:#FF3333;" width="15" height="89.65"/>
<circle style="fill:#3E3D42;" cx="35.967" cy="364.87" r="26.69"/>
<rect x="248.502" y="382.91" style="fill:#FF3333;" width="15" height="89.65"/>
<circle style="fill:#3E3D42;" cx="256.002" cy="477.81" r="26.69"/>
<g>
	<path style="fill:#1D1D1F;" d="M249.198,477.81c0-11.225,6.933-20.825,16.747-24.769c-3.074-1.235-6.427-1.922-9.943-1.922
		c-14.741,0-26.69,11.95-26.69,26.69s11.949,26.691,26.69,26.691c3.516,0,6.869-0.687,9.943-1.922
		C256.131,498.635,249.198,489.035,249.198,477.81z"/>
	<path style="fill:#1D1D1F;" d="M125.245,442.219c0-11.225,6.933-20.825,16.747-24.769c-3.074-1.235-6.427-1.922-9.943-1.922
		c-14.741,0-26.69,11.95-26.69,26.69s11.949,26.69,26.69,26.69c3.516,0,6.869-0.687,9.943-1.922
		C132.178,463.043,125.245,453.444,125.245,442.219z"/>
	<path style="fill:#1D1D1F;" d="M29.163,364.874c0-11.225,6.933-20.825,16.747-24.769c-3.074-1.235-6.427-1.922-9.943-1.922
		c-14.741,0-26.69,11.95-26.69,26.69s11.949,26.69,26.69,26.69c3.516,0,6.869-0.687,9.943-1.922
		C36.096,385.699,29.163,376.099,29.163,364.874z"/>
	<path style="fill:#1D1D1F;" d="M373.137,442.219c0-11.225,6.933-20.825,16.747-24.769c-3.074-1.235-6.427-1.922-9.943-1.922
		c-14.741,0-26.69,11.95-26.69,26.69s11.949,26.69,26.69,26.69c3.516,0,6.869-0.687,9.943-1.922
		C380.07,463.043,373.137,453.444,373.137,442.219z"/>
	<path style="fill:#1D1D1F;" d="M469.233,364.874c0-11.225,6.933-20.825,16.747-24.769c-3.074-1.235-6.427-1.922-9.943-1.922
		c-14.741,0-26.69,11.95-26.69,26.69s11.949,26.69,26.69,26.69c3.516,0,6.869-0.687,9.943-1.922
		C476.165,385.699,469.233,376.099,469.233,364.874z"/>
</g>
<path style="fill:#D1E7F8;" d="M256.002,106.002c-89.989,0-166.77,56.513-196.812,135.981c-3.233,8.552-3.233,18.016,0,26.568
	c30.042,79.469,106.823,135.982,196.812,135.982s166.77-56.513,196.812-135.981c3.233-8.552,3.233-18.016,0-26.568
	C422.772,162.515,345.991,106.002,256.002,106.002z"/>
<g>
	<path style="fill:#B9D8F4;" d="M452.814,241.984c-30.042-79.469-106.823-135.982-196.812-135.982S89.232,162.514,59.19,241.983
		c-3.233,8.552-3.233,18.016,0,26.568c2.036,5.385,4.294,10.661,6.748,15.825l9.051-6.9c9.782-7.457,97.968-72.853,181.013-72.853
		c83.05,0,171.229,65.396,181.012,72.853l9.052,6.901c2.455-5.164,4.713-10.44,6.749-15.826
		C456.047,260,456.047,250.535,452.814,241.984z"/>
	<path style="fill:#B9D8F4;" d="M100.439,266.903c-3.233-8.552-3.233-18.016,0-26.568c26.746-70.749,90.537-123.303,167.713-133.984
		c-4.021-0.229-8.072-0.349-12.15-0.349c-89.989,0-166.77,56.513-196.812,135.981c-3.233,8.552-3.233,18.016,0,26.568
		c30.042,79.469,106.823,135.982,196.812,135.982c9.874,0,19.588-0.681,29.099-1.997C200.399,397.71,129.12,342.77,100.439,266.903z
		"/>
</g>
<path style="fill:#96C8EF;" d="M98.75,260.979c-1.37-6.864-0.813-14.027,1.689-20.644c26.746-70.749,90.537-123.303,167.713-133.984
	c-4.021-0.229-8.072-0.349-12.15-0.349c-89.989,0-166.77,56.513-196.812,135.981c-3.233,8.552-3.233,18.016,0,26.568
	c2.036,5.385,4.294,10.661,6.748,15.825l9.051-6.9C77.653,275.447,86.143,269.114,98.75,260.979z"/>
<circle style="fill:#57E5D0;" cx="256.002" cy="255.27" r="98.87"/>
<g>
	<path style="fill:#28C6AF;" d="M195.128,253.619c0-46.609,32.252-85.678,75.655-96.125c-4.822-0.723-9.757-1.1-14.78-1.1
		c-54.607,0-98.875,44.268-98.875,98.874c0,54.607,44.268,98.875,98.875,98.875c7.998,0,15.772-0.956,23.22-2.749
		C231.626,344.258,195.128,303.202,195.128,253.619z"/>
	<path style="fill:#28C6AF;" d="M256.002,204.624c32.5,0,65.784,10.015,94.849,22.653c-12.073-40.974-49.965-70.884-94.849-70.884
		c-44.885,0-82.777,29.911-94.849,70.885C190.219,214.639,223.504,204.624,256.002,204.624z"/>
</g>
<path style="fill:#12B59E;" d="M161.153,227.278c13.628-5.926,28.185-11.269,43.153-15.28
	c12.552-26.999,36.923-47.391,66.477-54.505c-4.822-0.723-9.757-1.101-14.78-1.101C211.118,156.393,173.225,186.304,161.153,227.278
	z"/>
<path style="fill:#3E3D42;" d="M256.002,288.517c-18.334,0-33.249-14.916-33.249-33.25s14.916-33.249,33.249-33.249
	c18.334,0,33.249,14.916,33.249,33.249S274.336,288.517,256.002,288.517z"/>
<path style="fill:#2D2D30;" d="M245.972,249.791c0-11.395,5.764-21.467,14.528-27.461c-1.472-0.2-2.972-0.313-4.498-0.313
	c-18.334,0-33.249,14.915-33.249,33.249s14.916,33.25,33.249,33.25c6.938,0,13.385-2.139,18.721-5.789
	C258.511,280.525,245.972,266.599,245.972,249.791z"/>
<path style="fill:#FF5C5C;" d="M256.002,174.624c91.698,0,184.191,67.553,199.2,78.995c-0.173-3.951-0.969-7.881-2.388-11.635
	c-30.042-79.469-106.823-135.982-196.812-135.982S89.232,162.515,59.19,241.983c-1.419,3.754-2.214,7.684-2.388,11.635
	C71.811,242.177,164.304,174.624,256.002,174.624z"/>
<path style="fill:#FF3333;" d="M268.152,106.351c-4.021-0.229-8.072-0.349-12.15-0.349c-89.989,0-166.77,56.513-196.812,135.981
	c-1.419,3.754-2.214,7.684-2.388,11.635c6.213-4.737,25.714-19.091,52.932-34.286C140.31,159.328,198.829,115.945,268.152,106.351z"
	/>
<path d="M215.253,255.268c0,22.47,18.28,40.75,40.749,40.75c4.143,0,7.5-3.358,7.5-7.5s-3.357-7.5-7.5-7.5
	c-14.198,0-25.749-11.551-25.749-25.75c0-14.198,11.551-25.75,25.749-25.75s25.749,11.551,25.749,25.75
	c0,7.9-3.568,15.26-9.791,20.191c-3.246,2.573-3.793,7.29-1.22,10.536s7.291,3.793,10.536,1.22
	c9.834-7.793,15.475-19.438,15.475-31.947c0-22.469-18.28-40.75-40.749-40.75S215.253,232.798,215.253,255.268z"/>
<path d="M283.388,64.886c0-15.101-12.285-27.386-27.386-27.386c-15.101,0-27.386,12.285-27.386,27.386s12.285,27.386,27.386,27.386
	C271.103,92.272,283.388,79.987,283.388,64.886z M243.616,64.886c0-6.83,5.557-12.386,12.386-12.386
	c6.829,0,12.386,5.557,12.386,12.386s-5.557,12.386-12.386,12.386S243.616,71.715,243.616,64.886z"/>
<path d="M54.672,216.542c1.973-0.007,3.903-0.805,5.303-2.206c1.393-1.393,2.192-3.324,2.199-5.297c0-1.98-0.799-3.91-2.199-5.31
	c-1.393-1.393-3.323-2.193-5.303-2.193c-1.98,0-3.91,0.799-5.303,2.193c-1.4,1.4-2.199,3.33-2.199,5.31
	c0.007,1.973,0.806,3.904,2.199,5.297C50.769,215.736,52.699,216.535,54.672,216.542z"/>
<path d="M457.332,216.542c1.973-0.007,3.903-0.805,5.303-2.206c1.393-1.393,2.192-3.324,2.199-5.297c0-1.98-0.799-3.91-2.199-5.31
	c-1.393-1.393-3.324-2.193-5.303-2.193c-1.98,0-3.91,0.799-5.303,2.193c-1.4,1.4-2.199,3.33-2.199,5.31
	c0.007,1.973,0.806,3.904,2.199,5.297C453.429,215.736,455.359,216.535,457.332,216.542z"/>
<path d="M499.235,339.759c-6.335-5.852-14.572-9.075-23.192-9.075c-6.971,0-13.746,2.159-19.41,6.057l-20.925-19.328
	c9.799-14.284,17.906-29.767,24.122-46.21c1.074-2.84,1.85-5.75,2.33-8.709c23.554-6.778,40.222-28.576,40.222-53.455
	c0-25.926-17.69-47.958-42.203-53.992c0.713-4.081,1.078-8.262,1.078-12.508c0-39.356-32.019-71.375-71.375-71.375
	c-10.805,0-21.35,2.428-30.959,7.061C346.392,33.166,305,0,256.002,0c-48.839,0-90.124,32.948-102.801,77.784
	c-9.525-4.532-19.965-6.909-30.641-6.909c-39.356,0-71.375,32.019-71.375,71.375c0,4.227,0.377,8.411,1.103,12.515
	C27.812,160.816,10.06,182.97,10.06,208.75c0,24.713,16.227,46.328,39.722,53.313c0.473,3.108,1.267,6.164,2.393,9.142
	c6.216,16.443,14.323,31.926,24.122,46.21l-20.925,19.328c-5.665-3.899-12.439-6.057-19.41-6.057c-8.62,0-16.857,3.223-23.192,9.075
	c-13.849,12.792-14.708,34.465-1.917,48.314c6.453,6.985,15.609,10.992,25.122,10.992c8.62,0,16.857-3.223,23.192-9.075
	c6.709-6.197,10.603-14.635,10.965-23.76c0.26-6.572-1.343-12.929-4.57-18.481l19.703-18.2
	c12.926,16.283,28.209,30.737,45.536,42.928c5.773,4.062,11.708,7.823,17.784,11.278l-10.473,24.824
	c-1.987-0.359-4.003-0.549-6.043-0.549c-13.786,0-26.155,8.207-31.514,20.907c-7.328,17.37,0.842,37.463,18.212,44.791
	c4.239,1.789,8.707,2.695,13.278,2.695c13.785,0,26.155-8.207,31.513-20.907c6.326-14.996,1.095-32.014-11.628-41.103l9.991-23.683
	c26.951,12.94,56.288,20.149,86.581,21.171v32.559c-15.255,3.429-26.69,17.076-26.69,33.352c0,18.853,15.338,34.19,34.19,34.19
	s34.19-15.337,34.19-34.19c0-16.276-11.435-29.922-26.69-33.352V411.9c30.292-1.022,59.63-8.231,86.581-21.171l9.991,23.683
	c-12.723,9.089-17.954,26.107-11.628,41.103c5.357,12.7,17.727,20.907,31.513,20.907c0.001,0,0.001,0,0.002,0
	c4.569,0,9.037-0.907,13.276-2.695c17.37-7.328,25.54-27.421,18.212-44.791c-5.358-12.701-17.728-20.907-31.514-20.907
	c-2.039,0-4.056,0.191-6.043,0.549l-10.473-24.824c6.076-3.455,12.01-7.216,17.784-11.278c17.326-12.19,32.609-26.645,45.536-42.928
	l19.703,18.2c-3.227,5.552-4.83,11.909-4.57,18.481c0.362,9.125,4.256,17.563,10.965,23.76c6.335,5.852,14.571,9.075,23.191,9.075
	c0.001,0,0.001,0,0.002,0c9.512,0,18.669-4.006,25.121-10.992C513.943,374.225,513.083,352.551,499.235,339.759z M48.988,378.971
	c-3.556,3.285-8.178,5.094-13.015,5.094c-5.42,0-10.428-2.191-14.103-6.169c-7.181-7.773-6.697-19.938,1.075-27.118
	c3.556-3.285,8.178-5.094,13.015-5.094c5.42,0,10.428,2.191,14.103,6.169c3.479,3.766,5.282,8.66,5.079,13.782
	C54.94,370.757,52.754,375.493,48.988,378.971z M487.382,209.04c0,16.765-10.358,31.613-25.465,37.698
	c-0.485-2.52-1.177-4.996-2.088-7.406c-5.838-15.444-13.343-30.042-22.353-43.595c8.231-7.337,14.522-16.301,18.56-26.252
	C474.209,173.699,487.382,189.917,487.382,209.04z M256.002,167.124c-75.429,0-150.438,43.775-185.783,67.69
	c32.111-72.978,105.465-121.312,185.783-121.312c80.319,0,153.671,48.332,185.782,121.311
	C406.44,210.898,331.436,167.124,256.002,167.124z M347.376,255.268c0,50.384-40.99,91.375-91.374,91.375
	s-91.374-40.99-91.374-91.375c0-23.391,8.781-45.482,24.734-62.479c21.448-6.465,44.061-10.665,66.64-10.665
	c22.581,0,45.197,4.201,66.646,10.666C338.605,209.784,347.376,231.839,347.376,255.268z M111.003,138.388
	c-3.585,0-6.501-2.916-6.501-6.5s2.916-6.501,6.501-6.501c3.584,0,6.5,2.917,6.5,6.501S114.587,138.388,111.003,138.388z
	 M394.501,131.888c0-3.584,2.916-6.501,6.5-6.501c3.585,0,6.501,2.917,6.501,6.501s-2.916,6.5-6.501,6.5
	C397.417,138.388,394.501,135.472,394.501,131.888z M389.882,86.165c31.085,0,56.375,25.29,56.375,56.375
	c0,15.713-6.339,30.3-17.584,40.913c-8.365-10.857-17.762-20.928-28.103-30.087c0.145,0.003,0.285,0.022,0.431,0.022
	c11.855,0,21.501-9.645,21.501-21.5s-9.646-21.501-21.501-21.501s-21.5,9.646-21.5,21.501c0,1.907,0.274,3.747,0.742,5.509
	c-6.181-4.301-12.545-8.257-19.068-11.865c1.086-6.149,1.638-12.433,1.638-18.72c0-4.492-0.282-8.919-0.823-13.267
	C370.462,88.713,380.034,86.165,389.882,86.165z M256.002,15c50.625,0,91.812,41.187,91.812,91.812
	c0,3.876-0.243,7.749-0.724,11.577l-0.006,0.007c-28.357-13.084-59.262-19.894-91.082-19.894c-31.819,0-62.724,6.81-91.079,19.892
	c-0.481-3.83-0.732-7.7-0.732-11.582C164.19,56.187,205.377,15,256.002,15z M50.166,246.304
	c-15.025-6.188-25.106-20.906-25.106-37.555c0-19.028,13.234-35.354,31.395-39.567c1.784,4.375,3.834,8.702,6.651,12.57
	c4.063,5.58,9.121,2.938,10.398,2.088c3.448-2.295,4.383-6.951,2.088-10.399c-6.154-9.247-9.407-20.034-9.407-31.193
	c0-31.085,25.29-56.375,56.375-56.375c9.694,0,19.138,2.475,27.516,7.169c-0.583,4.509-0.885,9.104-0.885,13.768
	c0,6.292,0.551,12.565,1.639,18.719c-6.523,3.608-12.886,7.564-19.068,11.865c0.468-1.761,0.742-3.601,0.742-5.508
	c0-11.855-9.645-21.501-21.5-21.501s-21.502,9.647-21.502,21.503s9.646,21.5,21.501,21.5c0.145,0,0.286-0.019,0.43-0.022
	c-26.415,23.395-46.692,52.724-59.26,85.965C51.315,241.603,50.646,243.934,50.166,246.304z M149.737,449.685
	c-3.008,7.13-9.953,11.737-17.692,11.737c-2.558,0-5.063-0.51-7.448-1.516c-9.749-4.113-14.335-15.391-10.222-25.141
	c3.008-7.13,9.953-11.737,17.693-11.737c2.558,0,5.063,0.51,7.447,1.516C149.265,428.657,153.851,439.936,149.737,449.685z
	 M275.192,477.81c0,10.582-8.608,19.19-19.19,19.19s-19.19-8.608-19.19-19.19s8.608-19.19,19.19-19.19
	S275.192,467.229,275.192,477.81z M372.488,424.544c2.385-1.006,4.89-1.516,7.447-1.516c7.74,0,14.686,4.607,17.693,11.737
	c4.113,9.75-0.473,21.028-10.222,25.141c-2.385,1.006-4.89,1.516-7.446,1.516h-0.001c-7.74,0-14.686-4.607-17.693-11.737
	C358.153,439.936,362.739,428.657,372.488,424.544z M256.002,397.033c-83.871,0-160.145-52.699-189.797-131.133
	c-1.047-2.769-1.666-5.638-1.865-8.565c14.152-10.505,52.504-37.205,99.824-55.787c-9.469,16.133-14.537,34.552-14.537,53.72
	c0,58.655,47.719,106.375,106.374,106.375s106.374-47.719,106.374-106.375c0-19.195-5.063-37.598-14.528-53.718
	c47.318,18.583,85.666,45.281,99.816,55.785c-0.198,2.926-0.818,5.796-1.865,8.565C416.147,344.334,339.873,397.033,256.002,397.033
	z M490.133,377.896c-3.675,3.979-8.683,6.169-14.103,6.169c-4.837,0-9.459-1.809-13.015-5.094
	c-3.766-3.478-5.951-8.214-6.154-13.336s1.601-10.016,5.079-13.782c3.675-3.979,8.683-6.169,14.103-6.169
	c4.837,0,9.459,1.809,13.015,5.094C496.83,357.958,497.314,370.123,490.133,377.896z"/>
<g>
</g>
<g>
</g>
<g>
</g>
<g>
</g>
<g>
</g>
<g>
</g>
<g>
</g>
<g>
</g>
<g>
</g>
<g>
</g>
<g>
</g>
<g>
</g>
<g>
</g>
<g>
</g>
<g>
</g>
</svg>
